<?xml version="1.0" encoding="UTF-8"?>
<svg id="Layer_1" xmlns="http://www.w3.org/2000/svg" version="1.1" viewBox="0 0 2257 2257">
  <!-- Generator: Adobe Illustrator 29.4.0, SVG Export Plug-In . SVG Version: 2.1.0 Build 152)  -->
  <defs>
    <style>
      .st0 {
        fill: #fffabf;
      }
    </style>
  </defs>
  <rect class="st0" width="2257" height="2257"/>
  <path d="M122,404.8v-138.7c0-79.5,65.4-144.1,145.8-144.1h135.4c80.4,0,145.8,64.7,145.8,144.1v282.9h-281.2c-80.4,0-145.8-64.7-145.8-144.2ZM186.1,404.8c0,44.2,36.7,80.1,81.7,80.1h217.2c0,0,0-218.8,0-218.8,0-44.1-36.7-80.1-81.7-80.1h-135.4c-45.1,0-81.7,35.9-81.7,80.1v138.7Z"/>
  <path d="M2135,404.8v-138.7c0-79.5-65.4-144.1-145.8-144.1h-135.4c-80.4,0-145.8,64.7-145.8,144.1v282.9h281.2c80.4,0,145.8-64.7,145.8-144.2ZM2070.9,404.8c0,44.2-36.7,80.1-81.7,80.1h-217.2c0,0,0-218.8,0-218.8,0-44.1,36.7-80.1,81.7-80.1h135.4c45.1,0,81.7,35.9,81.7,80.1v138.7Z"/>
  <path d="M122,1852.2v138.7c0,79.5,65.4,144.1,145.8,144.1h135.4c80.4,0,145.8-64.7,145.8-144.1v-282.9h-281.2c-80.4,0-145.8,64.7-145.8,144.2ZM186.1,1852.2c0-44.2,36.7-80.1,81.7-80.1h217.2c0,0,0,218.8,0,218.8,0,44.1-36.7,80.1-81.7,80.1h-135.4c-45.1,0-81.7-35.9-81.7-80.1v-138.7Z"/>
  <path d="M244,377.2v-83.4c0-27.4,22.7-49.8,50.6-49.8h81.9c27.9,0,50.6,22.3,50.6,49.8v133.2h-132.4c-27.9,0-50.6-22.4-50.6-49.8Z"/>
  <path d="M2013,377.2v-83.4c0-27.4-22.7-49.8-50.6-49.8h-81.9c-27.9,0-50.6,22.3-50.6,49.8v133.2h132.4c27.9,0,50.6-22.4,50.6-49.8Z"/>
  <path d="M244,1879.8v83.4c0,27.4,22.7,49.8,50.6,49.8h81.9c27.9,0,50.6-22.3,50.6-49.8v-133.2h-132.4c-27.9,0-50.6,22.4-50.6,49.8Z"/>
</svg>